<?xml version="1.0" encoding="utf-8"?>
<!-- Generator: Adobe Illustrator 19.0.0, SVG Export Plug-In . SVG Version: 6.00 Build 0)  -->
<svg version="1.1"
	 id="svg3013" xmlns:dc="http://purl.org/dc/elements/1.1/" xmlns:cc="http://creativecommons.org/ns#" xmlns:rdf="http://www.w3.org/1999/02/22-rdf-syntax-ns#" xmlns:svg="http://www.w3.org/2000/svg" xmlns:sodipodi="http://sodipodi.sourceforge.net/DTD/sodipodi-0.dtd" xmlns:inkscape="http://www.inkscape.org/namespaces/inkscape" inkscape:version="0.48.3.1 r9886" sodipodi:docname="phone_font_awesome.svg"
	 xmlns="http://www.w3.org/2000/svg" xmlns:xlink="http://www.w3.org/1999/xlink" x="0px" y="0px" viewBox="55 93.9 490 493"
	 style="enable-background:new 55 93.9 490 493;" xml:space="preserve">
<style type="text/css">
</style>
<sodipodi:namedview  inkscape:cy="896" inkscape:cx="896" inkscape:zoom="0.13169643" showgrid="false" guidetolerance="10" gridtolerance="10" objecttolerance="10" bordercolor="#666666" pagecolor="#ffffff" borderopacity="1" id="namedview3019" inkscape:window-height="480" inkscape:window-width="640" inkscape:current-layer="svg3013" inkscape:window-x="0" inkscape:pageopacity="0" inkscape:pageshadow="2" inkscape:window-y="25" inkscape:window-maximized="0">
	</sodipodi:namedview>
<g id="g3015" transform="matrix(1,0,0,-1,159.45763,1293.0169)">
	<path id="path3017" inkscape:connector-curvature="0" class="st0" d="M376.2,815.5c0-89.2-97.2-105.1-164.9-88.2
		c-92.9,23.1-177.6,95.5-232.7,171.2c-38.5,52.9-82.6,136.4-65.9,204.6c21.8,89,83.8,96.3,128.6,37.7c6.4-8.3,35.1-47.3,34.9-59
		c-0.6-36.6-44.1-38.6-53.1-69.6C9.1,963.3,90,894.3,125.4,867.3c10-7.6,45.1-39.8,63-38.6c33.7,2.3,37.1,46.4,66.9,53.7
		C276.3,887.7,376.2,839.2,376.2,815.5z"/>
</g>
</svg>
